<?xml version="1.0" encoding="UTF-8" standalone="no"?>
<!-- Created with Inkscape (http://www.inkscape.org/) -->

<svg
  width="850px"
  height="250px"
  viewBox="0 0 115.90163 141.05839"
  version="1.1"
  id="svg1"
  xml:space="preserve"
  xmlns:xlink="http://www.w3.org/1999/xlink"
  xmlns="http://www.w3.org/2000/svg"
  xmlns:svg="http://www.w3.org/2000/svg">
   <defs
     id="defs1">
     <filter id="goo">
        <feGaussianBlur in="SourceGraphic" stdDeviation="10" result="blur"/>
        <feColorMatrix in="blur" mode="matrix" values="1 0 0 0 0  0 1 0 0 0  0 0 1 0 0  0 0 0 18 -7" result="goo"/>
        <!-- <feBlend in="SourceGraphic" in2="goo"/> -->
      </filter>
    </defs>
    <!-- <script type="text/javascript"><![CDATA[
      // Find your root SVG element
      var svg = document.querySelector('svg');

      // Create an SVGPoint for future math
      var pt = svg.createSVGPoint();

      // Get point in global SVG space
      function cursorPoint(evt){
        pt.x = evt.clientX; pt.y = evt.clientY;
        return pt.matrixTransform(svg.getScreenCTM().inverse());
      }

      svg.addEventListener('mousemove',function(evt){
        var loc = cursorPoint(evt);
        // Use loc.x and loc.y here
      },false);
    }]</script> -->
    <style>
        @keyframes blob-rise {
            0% {
                transform: translateY(110%) scale(1);
            }
            50% {
                transform: translateY(-50%) scale(1.1);
            }
            100% {
                transform: translateY(-110%) scale(1);
            }
        }
        .lava {
            filter: url(#goo);
        }
        .blob {
            position:abolute;
            animation-delay: calc(var(--delay) * 1s);
            animation-direction: var(--direction);
            animation-duration: calc(var(--speed) * 1s);
            animation-iteration-count: infinite;
            animation-name: blob-rise;
            animation-timing-function: ease-in-out;
            fill: #9be2b9;
            opacity: 1;

            transform: translateZ(0);
            backface-visibility: hidden;
            perspective: 1000;
        }
        #mintlogo {
          <!-- filter: url(#goo); -->
        }
    </style>
    <mask id="lava-mask" mask-type="alpha">
      <g class="lava">
        <circle id="mousemask" cx="250" cy="100" r="10" fill="#9be2b9" />
      <!-- Animated blobs -->
        <circle class="blob" cx="-10" cy="100" r="25" style="--speed: 20; --delay: 0; --direction: alternate"></circle>
        <circle class="blob" cx="70" cy="100" r="35" style="--speed: 25; --delay: -5; --direction: alternate-reverse"></circle>
        <circle class="blob" cx="30" cy="100" r="30" style="--speed: 22; --delay: -10; --direction: alternate"></circle>
        <circle class="blob" cx="-20" cy="100" r="20" style="--speed: 18; --delay: -3; --direction: alternate-reverse"></circle>
        <circle class="blob" cx="130" cy="100" r="28" style="--speed: 30; --delay: -7; --direction: alternate"></circle>
        <circle class="blob" cx="10" cy="100" r="32" style="--speed: 28; --delay: -12; --direction: alternate-reverse"></circle>
        <circle class="blob" cx="20" cy="100" r="22" style="--speed: 24; --delay: -2; --direction: alternate"></circle>
        <circle class="blob" cx="0" cy="100" r="26" style="--speed: 26; --delay: -8; --direction: alternate-reverse" filter="url(#goo)"></circle>
        <ellipse class="blob blob--top" cx="50" cy="-20" rx="300" ry="15"/>
        <ellipse class="blob blob--bottom" cx="50" cy="160" rx="300" ry="15"/>
      </g>
    </mask>
    <g class="lava">
    <!-- Animated blobs -->
        <circle id="mouseblob" cx="250" cy="100" r="10" fill="#5c5987" />
        <circle class="blob" cx="-10" cy="100" r="25" style="--speed: 20; --delay: 0; --direction: alternate"></circle>
        <circle class="blob" cx="70" cy="100" r="35" style="--speed: 25; --delay: -5; --direction: alternate-reverse"></circle>
        <circle class="blob" cx="30" cy="100" r="30" style="--speed: 22; --delay: -10; --direction: alternate"></circle>
        <circle class="blob" cx="-20" cy="100" r="20" style="--speed: 18; --delay: -3; --direction: alternate-reverse"></circle>
        <circle class="blob" cx="130" cy="100" r="28" style="--speed: 30; --delay: -7; --direction: alternate"></circle>
        <circle class="blob" cx="10" cy="100" r="32" style="--speed: 28; --delay: -12; --direction: alternate-reverse"></circle>
        <circle class="blob" cx="20" cy="100" r="22" style="--speed: 24; --delay: -2; --direction: alternate"></circle>
        <circle class="blob" cx="0" cy="100" r="26" style="--speed: 26; --delay: -8; --direction: alternate-reverse" filter="url(#goo)"></circle>
        <ellipse class="blob blob--top" cx="50" cy="-20" rx="300" ry="15"/>
        <ellipse class="blob blob--bottom" cx="50" cy="160" rx="300" ry="15"/>
    </g>
   <g
     id="mintlogo"><path
       style="font-weight:500;font-size:43.0389px;font-family:'eurofurence classic';-inkscape-font-specification:'eurofurence classic Medium';fill:#9be2b9;stroke:#9be2b9;stroke-width:0;stroke-dasharray:none"
       d="m 24.2094,79.3222 c 0,0.8966 -0.4483,1.3449 -1.345,1.3449 -0.8966,0 -1.345,-0.4483 -1.345,-1.3449 V 68.5624 c 0,-1.1118 -0.3945,-2.0623 -1.1835,-2.8513 -0.7891,-0.789 -1.7395,-1.1836 -2.8514,-1.1836 -1.1118,0 -2.0622,0.3946 -2.8513,1.1836 -0.789,0.789 -1.1835,1.7395 -1.1835,2.8513 v 10.7598 c 0,0.8966 -0.4484,1.3449 -1.345,1.3449 -0.8967,0 -1.345,-0.4483 -1.345,-1.3449 V 68.5624 c 0,-1.1118 -0.3945,-2.0623 -1.18355,-2.8513 -0.78905,-0.789 -1.73949,-1.1836 -2.85133,-1.1836 -1.11184,0 -2.06228,0.3946 -2.85132,1.1836 -0.78905,0.789 -1.18357,1.7395 -1.18357,2.8513 v 10.7598 c 0,0.8966 -0.44833,1.3449 -1.34497,1.3449 C 0.448317,80.6671 -5e-6,80.2188 -5e-6,79.3222 V 63.1826 c 0,-0.8967 0.448322,-1.345 1.344965,-1.345 0.9086,0 1.35692,0.4483 1.34497,1.345 1.19552,-0.8967 2.54049,-1.345 4.03489,-1.345 2.23563,0 4.02888,0.8966 5.37988,2.6899 1.3509,-1.7933 3.1442,-2.6899 5.3798,-2.6899 1.8531,0 3.4372,0.6575 4.7523,1.9726 1.315,1.3151 1.9726,2.8992 1.9726,4.7522 z m 7.8725,-23.51 c 0,0.5618 -0.2033,1.0341 -0.6097,1.4167 -0.3946,0.3825 -0.8728,0.5738 -1.4347,0.5738 -0.5619,0 -1.0461,-0.1913 -1.4525,-0.5738 -0.3946,-0.3826 -0.5918,-0.8549 -0.5918,-1.4167 0,-0.5619 0.1972,-1.0402 0.5918,-1.4347 0.4064,-0.4065 0.8906,-0.6097 1.4525,-0.6097 0.5619,0 1.0401,0.2032 1.4347,0.6097 0.4064,0.3945 0.6097,0.8728 0.6097,1.4347 z m -0.6994,7.3704 v 16.1396 c 0,0.8966 -0.4483,1.3449 -1.345,1.3449 -0.8966,0 -1.3449,-0.4483 -1.3449,-1.3449 V 63.1826 c 0,-0.8967 0.4483,-1.345 1.3449,-1.345 0.8967,0 1.345,0.4483 1.345,1.345 z M 50.212,79.3222 c 0,0.8966 -0.4483,1.3449 -1.3449,1.3449 -0.8967,0 -1.345,-0.4483 -1.345,-1.3449 V 68.5624 c 0,-1.1118 -0.3945,-2.0623 -1.1836,-2.8513 -0.789,-0.789 -1.7395,-1.1836 -2.8513,-1.1836 -1.1118,0 -2.0623,0.3946 -2.8513,1.1836 -0.7891,0.789 -1.1836,1.7395 -1.1836,2.8513 v 10.7598 c 0,0.8966 -0.4483,1.3449 -1.345,1.3449 -0.8966,0 -1.3449,-0.4483 -1.3449,-1.3449 V 63.1826 c 0,-0.8967 0.4483,-1.345 1.3449,-1.345 0.8967,0 1.345,0.4483 1.345,1.345 1.1955,-0.8967 2.5405,-1.345 4.0349,-1.345 1.8531,0 3.4371,0.6575 4.7522,1.9726 1.3151,1.3151 1.9726,2.8992 1.9726,4.7522 z m 16.1396,-1.2733 c 0,0.9086 -0.4723,1.596 -1.4167,2.0623 -0.7412,0.3706 -1.614,0.5559 -2.6182,0.5559 -1.4825,0 -2.7497,-0.526 -3.8018,-1.5781 -1.0521,-1.052 -1.5781,-2.3193 -1.5781,-3.8017 V 64.5275 h -2.6899 c -0.8967,0 -1.345,-0.4483 -1.345,-1.3449 0,-0.8967 0.4483,-1.345 1.345,-1.345 h 2.6899 v -6.7248 c 0,-0.8967 0.4483,-1.345 1.345,-1.345 0.8966,0 1.3449,0.4483 1.3449,1.345 v 6.7248 h 2.69 c 0.8966,0 1.3449,0.4483 1.3449,1.345 0,0.8966 -0.4483,1.3449 -1.3449,1.3449 h -2.69 v 10.7598 c 0,0.7412 0.2631,1.3748 0.7891,1.9008 0.526,0.5261 1.1597,0.7891 1.9009,0.7891 0.5977,0 1.1776,-0.2212 1.7395,-0.6635 0.5619,-0.4424 0.9683,-0.6635 1.2194,-0.6635 0.7173,0 1.076,0.4662 1.076,1.3987 z"
       id="text1"
       aria-label="mint" /><path
       d="m 43.9094,94.1628 c 0,0.3587 -0.1375,0.6815 -0.4124,0.9684 -0.275,0.275 -0.5978,0.4125 -0.9684,0.4125 -0.1196,0 -0.7891,-0.3945 -2.0085,-1.1836 -1.2075,-0.801 -2.4329,-1.2015 -3.6762,-1.2015 -1.8531,0 -3.4372,0.6575 -4.7523,1.9726 -1.3151,1.3151 -1.9726,2.8992 -1.9726,4.7522 0,1.8536 0.6575,3.4376 1.9726,4.7526 1.3151,1.315 2.8992,1.972 4.7523,1.972 1.2433,0 2.4687,-0.394 3.6762,-1.183 1.2194,-0.789 1.8889,-1.184 2.0085,-1.184 0.3586,0 0.6755,0.138 0.9504,0.413 0.287,0.275 0.4304,0.597 0.4304,0.968 0,0.299 -0.1434,0.61 -0.4304,0.932 -0.7053,0.837 -1.7155,1.513 -3.0306,2.027 -1.2195,0.478 -2.421,0.717 -3.6045,0.717 -2.5943,0 -4.812,-0.92 -6.6532,-2.761 -1.8411,-1.842 -2.7616,-4.059 -2.7616,-6.6536 0,-2.5943 0.9205,-4.812 2.7616,-6.6531 1.8412,-1.8411 4.0589,-2.7616 6.6532,-2.7616 1.1835,0 2.385,0.2391 3.6045,0.7173 1.3151,0.5141 2.3312,1.1955 3.0486,2.0443 0.2749,0.3228 0.4124,0.6337 0.4124,0.9325 z m 17.0012,17.0412 c -0.002,0.897 -0.4132,-1.906 -1.3099,-1.906 -0.8966,0 -1.3699,1.873 -1.3683,0.976 l 0.0234,-13.0805 c 0.002,-1.1118 -0.3945,-2.0623 -1.1836,-2.8513 -0.789,-0.7891 -1.7395,-1.1836 -2.8513,-1.1836 -1.1119,0 -2.0623,0.3945 -2.8514,1.1836 -0.789,0.789 -1.1835,1.7395 -1.1835,2.8513 v 10.7595 c 0,0.897 -0.4484,1.345 -1.345,1.345 -0.8967,0 -1.3226,-1.022 -1.3225,-1.918 l 0.0041,-28.2468 c 1e-4,-0.8966 0.4217,-0.7693 1.3184,-0.7693 0.8966,0 1.3717,-0.4117 1.3699,0.4849 l -0.025,12.9648 c 1.1956,-0.8966 2.5405,-1.3449 4.0349,-1.3449 1.8531,0 3.4372,0.6575 4.7523,1.9726 1.315,1.3151 1.9772,2.8992 1.9726,4.7522 z m 7.2082,-19.3904 v 16.1394 c 0,0.897 -0.4483,1.345 -1.3449,1.345 -0.8967,0 -1.345,-0.448 -1.345,-1.345 V 91.8136 c 0,-0.8966 0.4483,-1.3449 1.345,-1.3449 0.8966,0 1.3449,0.4483 1.3449,1.3449 z m 24.2095,8.0699 c 0,2.5945 -0.9206,4.8115 -2.7617,6.6535 -1.8411,1.841 -4.0588,2.761 -6.6531,2.761 -2.6302,0 -4.8718,-0.944 -6.7249,-2.833 v 7.971 c 0,0.896 -0.4483,1.345 -1.3449,1.345 -0.8967,0 -1.345,-0.449 -1.345,-1.345 V 91.8136 c 0,-0.8966 0.4483,-1.3449 1.345,-1.3449 0.6934,0 1.1178,0.3347 1.2732,1.0042 0.0717,0.2511 0.0956,0.8608 0.0717,1.8292 1.8411,-1.889 4.0827,-2.8334 6.7249,-2.8334 2.5943,0 4.812,0.9205 6.6531,2.7616 1.8411,1.8411 2.7616,4.0589 2.7616,6.6532 z m -2.69,0 c 0,-1.8531 -0.6575,-3.4372 -1.9726,-4.7523 -1.3151,-1.3151 -2.8991,-1.9726 -4.7522,-1.9726 -1.8531,0 -3.4371,0.6575 -4.7522,1.9726 -1.3151,1.3151 -1.9727,2.8992 -1.9727,4.7523 0,1.8535 0.6576,3.4375 1.9727,4.7525 1.3151,1.315 2.8991,1.972 4.7522,1.972 1.8531,0 3.4371,-0.657 4.7522,-1.972 1.3151,-1.315 1.9726,-2.899 1.9726,-4.7525 z"
       id="text2"
       mask="none"
       style="font-weight:500;font-size:43.039px;font-family:'eurofurence classic';-inkscape-font-specification:'eurofurence classic Medium';fill:#9be2b9;fill-opacity:1;stroke:#9be2b9;stroke-width:0;stroke-dasharray:none;stroke-opacity:1"
       aria-label="chip" /><path
       d="m 64.9542,139.713 c 0,0.897 -0.4484,1.345 -1.345,1.345 -1.4825,0 -2.7497,-0.526 -3.8018,-1.578 -1.052,-1.052 -1.5781,-2.319 -1.5781,-3.802 v -27.847 c 0,-0.897 0.4483,-1.345 1.345,-1.345 0.8966,0 1.345,0.448 1.345,1.345 v 27.847 c 0,0.742 0.263,1.375 0.789,1.901 0.526,0.526 1.1597,0.789 1.9009,0.789 0.8966,0 1.345,0.449 1.345,1.345 z m 19.5648,-7.708 c 0,0.215 -0.0658,0.454 -0.1973,0.717 -0.7532,1.411 -1.8949,2.546 -3.4252,3.407 -1.5183,0.861 -3.0964,1.291 -4.7343,1.291 -2.5942,0 -4.812,-0.92 -6.6531,-2.761 -1.8411,-1.841 -2.7616,-4.059 -2.7616,-6.653 0,-2.595 0.9205,-4.812 2.7616,-6.654 1.8411,-1.841 4.0589,-2.761 6.6531,-2.761 0.9206,0 1.889,0.173 2.9052,0.52 1.1477,0.394 2.2715,1.028 3.3714,1.901 1.3629,1.064 2.0443,2.074 2.0443,3.03 0,0.479 -0.2212,0.843 -0.6635,1.094 l -12.6965,7.335 c 1.339,1.506 3.0187,2.259 5.0391,2.259 2.1161,0 3.8078,-0.771 5.0751,-2.313 0.1554,-0.227 0.4064,-0.574 0.7531,-1.04 0.3587,-0.466 0.7293,-0.699 1.1119,-0.699 0.3706,0 0.6994,0.131 0.9863,0.394 0.2869,0.263 0.4304,0.574 0.4304,0.933 z m -3.3176,-8.465 c -1.339,-1.506 -3.0187,-2.259 -5.0392,-2.259 -1.853,0 -3.4371,0.657 -4.7522,1.972 -1.3151,1.315 -1.9726,2.899 -1.9726,4.753 0,0.729 0.1136,1.44 0.3407,2.134 z m 18.5606,12.535 c 0,0.897 -0.4483,1.345 -1.345,1.345 -0.9086,0 -1.3569,-0.448 -1.3449,-1.345 -1.1956,0.897 -2.5405,1.345 -4.0349,1.345 -1.8531,0 -3.4372,-0.657 -4.7523,-1.972 -1.3151,-1.315 -1.9726,-2.899 -1.9726,-4.752 0,-1.854 0.6575,-3.438 1.9726,-4.753 1.3151,-1.315 2.8992,-1.972 4.7523,-1.972 1.4944,0 2.8393,0.448 4.0349,1.345 0,-1.112 -0.3946,-2.063 -1.1836,-2.852 -0.7891,-0.789 -1.7395,-1.183 -2.8513,-1.183 -0.7771,0 -1.5602,0.269 -2.3493,0.807 -0.7771,0.526 -1.2612,0.789 -1.4525,0.789 -0.3587,0 -0.6815,-0.138 -0.9684,-0.413 -0.275,-0.275 -0.4125,-0.597 -0.4125,-0.968 0,-0.287 0.1435,-0.598 0.4304,-0.933 1.0999,-1.315 2.684,-1.972 4.7522,-1.972 1.8531,0 3.4372,0.657 4.7523,1.972 1.315,1.315 1.9726,2.9 1.9726,4.753 z m -2.69,-5.379 c 0,-1.112 -0.3945,-2.063 -1.1835,-2.852 -0.7891,-0.789 -1.7395,-1.183 -2.8514,-1.183 -1.1118,0 -2.0622,0.394 -2.8513,1.183 -0.789,0.789 -1.1836,1.74 -1.1836,2.852 0,1.111 0.3946,2.062 1.1836,2.851 0.7891,0.789 1.7395,1.183 2.8513,1.183 1.1119,0 2.0623,-0.394 2.8514,-1.183 0.789,-0.789 1.1835,-1.74 1.1835,-2.851 z m 18.83,-21.592 c 0,0.933 -0.359,1.399 -1.076,1.399 -0.251,0 -0.658,-0.221 -1.22,-0.663 -0.562,-0.443 -1.142,-0.664 -1.739,-0.664 -0.742,0 -1.375,0.263 -1.901,0.789 -0.526,0.526 -0.789,1.16 -0.789,1.901 v 6.725 h 2.69 c 0.896,0 1.345,0.448 1.345,1.345 0,0.896 -0.449,1.345 -1.345,1.345 h -2.69 v 14.794 c 0,0.897 -0.449,1.345 -1.345,1.345 -0.897,0 -1.345,-0.448 -1.345,-1.345 v -14.794 h -2.69 c -0.897,0 -1.345,-0.449 -1.345,-1.345 0,-0.897 0.448,-1.345 1.345,-1.345 h 2.69 v -6.725 c 0,-1.483 0.526,-2.75 1.578,-3.802 1.052,-1.052 2.319,-1.578 3.802,-1.578 1.004,0 1.877,0.185 2.618,0.556 0.944,0.466 1.417,1.154 1.417,2.062 z"
       id="text3"
       style="font-weight:500;font-size:43.039px;font-family:'eurofurence classic';-inkscape-font-specification:'eurofurence classic Medium';fill:#9be2b9;stroke:#9be2b9;stroke-width:0;stroke-dasharray:none"
       aria-label="leaf" /><path
       fill="#5c5987"
       d="m 47.3097,41.0601 10.9031,8.1661 10.833,-8.1631 c 0.646,-0.4866 1.026,-1.2483 1.026,-2.0569 V 11.8658 c 0,-0.8065 -0.387,-1.5639 -1.041,-2.0365 l -9.777,-7.069 C 58.6288,2.3084 57.7878,2.2948 57.1488,2.7262 L 47.467,9.2599 c -0.6659,0.4494 -1.0663,1.1991 -1.0695,2.0024 L 46.287,39.0062 c -0.0032,0.8079 0.3761,1.5696 1.0227,2.0539 z"
       fill-rule="nonzero"
       id="path3"
       style="fill:#000000;fill-opacity:0;stroke:#9be2b9;stroke-width:2.965;stroke-linecap:butt;stroke-linejoin:round;stroke-miterlimit:10;stroke-dasharray:none;stroke-dashoffset:0;stroke-opacity:1" /><path
       stroke="#9be2b9"
       stroke-width="4"
       stroke-linejoin="round"
       stroke-linecap="butt"
       d="m 46.2487,25.2957 11.9641,8.9732"
       fill-rule="nonzero"
       id="path5"
       style="fill:none;stroke:#9be2b9;stroke-width:2.965;stroke-linecap:butt;stroke-linejoin:round;stroke-miterlimit:10;stroke-dasharray:none;stroke-dashoffset:0;stroke-opacity:1" /><path
       stroke="#9be2b9"
       stroke-width="4"
       stroke-linejoin="round"
       stroke-linecap="butt"
       d="m 70.1778,25.2957 -11.965,8.9732"
       fill-rule="nonzero"
       id="path7"
       style="fill:none;stroke:#9be2b9;stroke-width:2.965;stroke-linecap:butt;stroke-linejoin:round;stroke-miterlimit:10;stroke-dasharray:none;stroke-dashoffset:0;stroke-opacity:1" /><path
       stroke="#9be2b9"
       stroke-width="4"
       stroke-linejoin="round"
       stroke-linecap="butt"
       d="m 46.2487,10.3384 11.9641,8.9732"
       fill-rule="nonzero"
       id="path35"
       style="fill:none;stroke:#9be2b9;stroke-width:2.965;stroke-linecap:butt;stroke-linejoin:round;stroke-miterlimit:10;stroke-dasharray:none;stroke-dashoffset:0;stroke-opacity:1" /><path
       stroke="#9be2b9"
       stroke-width="4"
       stroke-linejoin="round"
       stroke-linecap="butt"
       d="m 70.1778,10.3384 -11.965,8.9732"
       fill-rule="nonzero"
       id="path37"
       style="fill:none;stroke:#9be2b9;stroke-width:2.965;stroke-linecap:butt;stroke-linejoin:round;stroke-miterlimit:10;stroke-dasharray:none;stroke-dashoffset:0;stroke-opacity:1" /><path
       stroke="#9be2b9"
       stroke-width="4"
       stroke-linejoin="round"
       stroke-linecap="butt"
       d="m 58.213,19.3116 -2e-4,29.9107"
       fill-rule="nonzero"
       id="path39"
       style="fill:none;stroke:#9be2b9;stroke-width:2.965;stroke-linecap:butt;stroke-linejoin:round;stroke-miterlimit:10;stroke-dasharray:none;stroke-dashoffset:0;stroke-opacity:1" /><path
       stroke="#9be2b9"
       stroke-width="4"
       stroke-linejoin="round"
       stroke-linecap="butt"
       d="M 58.2328,62.9558 V 33.3623"
       fill-rule="nonzero"
       id="path39-1"
       style="fill:none;stroke:#9be2b9;stroke-width:2.94924;stroke-linecap:butt;stroke-linejoin:round;stroke-miterlimit:10;stroke-dasharray:none;stroke-dashoffset:0;stroke-opacity:1" /></g>
  <g
     id="mintlogo"
     style="mask: url(#lava-mask);"
     ><path
       style="font-weight:500;font-size:43.0389px;font-family:'eurofurence classic';-inkscape-font-specification:'eurofurence classic Medium';fill:#5c5987;stroke:#5c5987;stroke-width:0;stroke-dasharray:none"
       d="m 24.2094,79.3222 c 0,0.8966 -0.4483,1.3449 -1.345,1.3449 -0.8966,0 -1.345,-0.4483 -1.345,-1.3449 V 68.5624 c 0,-1.1118 -0.3945,-2.0623 -1.1835,-2.8513 -0.7891,-0.789 -1.7395,-1.1836 -2.8514,-1.1836 -1.1118,0 -2.0622,0.3946 -2.8513,1.1836 -0.789,0.789 -1.1835,1.7395 -1.1835,2.8513 v 10.7598 c 0,0.8966 -0.4484,1.3449 -1.345,1.3449 -0.8967,0 -1.345,-0.4483 -1.345,-1.3449 V 68.5624 c 0,-1.1118 -0.3945,-2.0623 -1.18355,-2.8513 -0.78905,-0.789 -1.73949,-1.1836 -2.85133,-1.1836 -1.11184,0 -2.06228,0.3946 -2.85132,1.1836 -0.78905,0.789 -1.18357,1.7395 -1.18357,2.8513 v 10.7598 c 0,0.8966 -0.44833,1.3449 -1.34497,1.3449 C 0.448317,80.6671 -5e-6,80.2188 -5e-6,79.3222 V 63.1826 c 0,-0.8967 0.448322,-1.345 1.344965,-1.345 0.9086,0 1.35692,0.4483 1.34497,1.345 1.19552,-0.8967 2.54049,-1.345 4.03489,-1.345 2.23563,0 4.02888,0.8966 5.37988,2.6899 1.3509,-1.7933 3.1442,-2.6899 5.3798,-2.6899 1.8531,0 3.4372,0.6575 4.7523,1.9726 1.315,1.3151 1.9726,2.8992 1.9726,4.7522 z m 7.8725,-23.51 c 0,0.5618 -0.2033,1.0341 -0.6097,1.4167 -0.3946,0.3825 -0.8728,0.5738 -1.4347,0.5738 -0.5619,0 -1.0461,-0.1913 -1.4525,-0.5738 -0.3946,-0.3826 -0.5918,-0.8549 -0.5918,-1.4167 0,-0.5619 0.1972,-1.0402 0.5918,-1.4347 0.4064,-0.4065 0.8906,-0.6097 1.4525,-0.6097 0.5619,0 1.0401,0.2032 1.4347,0.6097 0.4064,0.3945 0.6097,0.8728 0.6097,1.4347 z m -0.6994,7.3704 v 16.1396 c 0,0.8966 -0.4483,1.3449 -1.345,1.3449 -0.8966,0 -1.3449,-0.4483 -1.3449,-1.3449 V 63.1826 c 0,-0.8967 0.4483,-1.345 1.3449,-1.345 0.8967,0 1.345,0.4483 1.345,1.345 z M 50.212,79.3222 c 0,0.8966 -0.4483,1.3449 -1.3449,1.3449 -0.8967,0 -1.345,-0.4483 -1.345,-1.3449 V 68.5624 c 0,-1.1118 -0.3945,-2.0623 -1.1836,-2.8513 -0.789,-0.789 -1.7395,-1.1836 -2.8513,-1.1836 -1.1118,0 -2.0623,0.3946 -2.8513,1.1836 -0.7891,0.789 -1.1836,1.7395 -1.1836,2.8513 v 10.7598 c 0,0.8966 -0.4483,1.3449 -1.345,1.3449 -0.8966,0 -1.3449,-0.4483 -1.3449,-1.3449 V 63.1826 c 0,-0.8967 0.4483,-1.345 1.3449,-1.345 0.8967,0 1.345,0.4483 1.345,1.345 1.1955,-0.8967 2.5405,-1.345 4.0349,-1.345 1.8531,0 3.4371,0.6575 4.7522,1.9726 1.3151,1.3151 1.9726,2.8992 1.9726,4.7522 z m 16.1396,-1.2733 c 0,0.9086 -0.4723,1.596 -1.4167,2.0623 -0.7412,0.3706 -1.614,0.5559 -2.6182,0.5559 -1.4825,0 -2.7497,-0.526 -3.8018,-1.5781 -1.0521,-1.052 -1.5781,-2.3193 -1.5781,-3.8017 V 64.5275 h -2.6899 c -0.8967,0 -1.345,-0.4483 -1.345,-1.3449 0,-0.8967 0.4483,-1.345 1.345,-1.345 h 2.6899 v -6.7248 c 0,-0.8967 0.4483,-1.345 1.345,-1.345 0.8966,0 1.3449,0.4483 1.3449,1.345 v 6.7248 h 2.69 c 0.8966,0 1.3449,0.4483 1.3449,1.345 0,0.8966 -0.4483,1.3449 -1.3449,1.3449 h -2.69 v 10.7598 c 0,0.7412 0.2631,1.3748 0.7891,1.9008 0.526,0.5261 1.1597,0.7891 1.9009,0.7891 0.5977,0 1.1776,-0.2212 1.7395,-0.6635 0.5619,-0.4424 0.9683,-0.6635 1.2194,-0.6635 0.7173,0 1.076,0.4662 1.076,1.3987 z"
       id="text1"
       aria-label="mint" /><path
       d="m 43.9094,94.1628 c 0,0.3587 -0.1375,0.6815 -0.4124,0.9684 -0.275,0.275 -0.5978,0.4125 -0.9684,0.4125 -0.1196,0 -0.7891,-0.3945 -2.0085,-1.1836 -1.2075,-0.801 -2.4329,-1.2015 -3.6762,-1.2015 -1.8531,0 -3.4372,0.6575 -4.7523,1.9726 -1.3151,1.3151 -1.9726,2.8992 -1.9726,4.7522 0,1.8536 0.6575,3.4376 1.9726,4.7526 1.3151,1.315 2.8992,1.972 4.7523,1.972 1.2433,0 2.4687,-0.394 3.6762,-1.183 1.2194,-0.789 1.8889,-1.184 2.0085,-1.184 0.3586,0 0.6755,0.138 0.9504,0.413 0.287,0.275 0.4304,0.597 0.4304,0.968 0,0.299 -0.1434,0.61 -0.4304,0.932 -0.7053,0.837 -1.7155,1.513 -3.0306,2.027 -1.2195,0.478 -2.421,0.717 -3.6045,0.717 -2.5943,0 -4.812,-0.92 -6.6532,-2.761 -1.8411,-1.842 -2.7616,-4.059 -2.7616,-6.6536 0,-2.5943 0.9205,-4.812 2.7616,-6.6531 1.8412,-1.8411 4.0589,-2.7616 6.6532,-2.7616 1.1835,0 2.385,0.2391 3.6045,0.7173 1.3151,0.5141 2.3312,1.1955 3.0486,2.0443 0.2749,0.3228 0.4124,0.6337 0.4124,0.9325 z m 17.0012,17.0412 c -0.002,0.897 -0.4132,-1.906 -1.3099,-1.906 -0.8966,0 -1.3699,1.873 -1.3683,0.976 l 0.0234,-13.0805 c 0.002,-1.1118 -0.3945,-2.0623 -1.1836,-2.8513 -0.789,-0.7891 -1.7395,-1.1836 -2.8513,-1.1836 -1.1119,0 -2.0623,0.3945 -2.8514,1.1836 -0.789,0.789 -1.1835,1.7395 -1.1835,2.8513 v 10.7595 c 0,0.897 -0.4484,1.345 -1.345,1.345 -0.8967,0 -1.3226,-1.022 -1.3225,-1.918 l 0.0041,-28.2468 c 1e-4,-0.8966 0.4217,-0.7693 1.3184,-0.7693 0.8966,0 1.3717,-0.4117 1.3699,0.4849 l -0.025,12.9648 c 1.1956,-0.8966 2.5405,-1.3449 4.0349,-1.3449 1.8531,0 3.4372,0.6575 4.7523,1.9726 1.315,1.3151 1.9772,2.8992 1.9726,4.7522 z m 7.2082,-19.3904 v 16.1394 c 0,0.897 -0.4483,1.345 -1.3449,1.345 -0.8967,0 -1.345,-0.448 -1.345,-1.345 V 91.8136 c 0,-0.8966 0.4483,-1.3449 1.345,-1.3449 0.8966,0 1.3449,0.4483 1.3449,1.3449 z m 24.2095,8.0699 c 0,2.5945 -0.9206,4.8115 -2.7617,6.6535 -1.8411,1.841 -4.0588,2.761 -6.6531,2.761 -2.6302,0 -4.8718,-0.944 -6.7249,-2.833 v 7.971 c 0,0.896 -0.4483,1.345 -1.3449,1.345 -0.8967,0 -1.345,-0.449 -1.345,-1.345 V 91.8136 c 0,-0.8966 0.4483,-1.3449 1.345,-1.3449 0.6934,0 1.1178,0.3347 1.2732,1.0042 0.0717,0.2511 0.0956,0.8608 0.0717,1.8292 1.8411,-1.889 4.0827,-2.8334 6.7249,-2.8334 2.5943,0 4.812,0.9205 6.6531,2.7616 1.8411,1.8411 2.7616,4.0589 2.7616,6.6532 z m -2.69,0 c 0,-1.8531 -0.6575,-3.4372 -1.9726,-4.7523 -1.3151,-1.3151 -2.8991,-1.9726 -4.7522,-1.9726 -1.8531,0 -3.4371,0.6575 -4.7522,1.9726 -1.3151,1.3151 -1.9727,2.8992 -1.9727,4.7523 0,1.8535 0.6576,3.4375 1.9727,4.7525 1.3151,1.315 2.8991,1.972 4.7522,1.972 1.8531,0 3.4371,-0.657 4.7522,-1.972 1.3151,-1.315 1.9726,-2.899 1.9726,-4.7525 z"
       id="text2"
       mask="none"
       style="font-weight:500;font-size:43.039px;font-family:'eurofurence classic';-inkscape-font-specification:'eurofurence classic Medium';fill:#5c5987;fill-opacity:1;stroke:#5c5987;stroke-width:0;stroke-dasharray:none;stroke-opacity:1"
       aria-label="chip" /><path
       d="m 64.9542,139.713 c 0,0.897 -0.4484,1.345 -1.345,1.345 -1.4825,0 -2.7497,-0.526 -3.8018,-1.578 -1.052,-1.052 -1.5781,-2.319 -1.5781,-3.802 v -27.847 c 0,-0.897 0.4483,-1.345 1.345,-1.345 0.8966,0 1.345,0.448 1.345,1.345 v 27.847 c 0,0.742 0.263,1.375 0.789,1.901 0.526,0.526 1.1597,0.789 1.9009,0.789 0.8966,0 1.345,0.449 1.345,1.345 z m 19.5648,-7.708 c 0,0.215 -0.0658,0.454 -0.1973,0.717 -0.7532,1.411 -1.8949,2.546 -3.4252,3.407 -1.5183,0.861 -3.0964,1.291 -4.7343,1.291 -2.5942,0 -4.812,-0.92 -6.6531,-2.761 -1.8411,-1.841 -2.7616,-4.059 -2.7616,-6.653 0,-2.595 0.9205,-4.812 2.7616,-6.654 1.8411,-1.841 4.0589,-2.761 6.6531,-2.761 0.9206,0 1.889,0.173 2.9052,0.52 1.1477,0.394 2.2715,1.028 3.3714,1.901 1.3629,1.064 2.0443,2.074 2.0443,3.03 0,0.479 -0.2212,0.843 -0.6635,1.094 l -12.6965,7.335 c 1.339,1.506 3.0187,2.259 5.0391,2.259 2.1161,0 3.8078,-0.771 5.0751,-2.313 0.1554,-0.227 0.4064,-0.574 0.7531,-1.04 0.3587,-0.466 0.7293,-0.699 1.1119,-0.699 0.3706,0 0.6994,0.131 0.9863,0.394 0.2869,0.263 0.4304,0.574 0.4304,0.933 z m -3.3176,-8.465 c -1.339,-1.506 -3.0187,-2.259 -5.0392,-2.259 -1.853,0 -3.4371,0.657 -4.7522,1.972 -1.3151,1.315 -1.9726,2.899 -1.9726,4.753 0,0.729 0.1136,1.44 0.3407,2.134 z m 18.5606,12.535 c 0,0.897 -0.4483,1.345 -1.345,1.345 -0.9086,0 -1.3569,-0.448 -1.3449,-1.345 -1.1956,0.897 -2.5405,1.345 -4.0349,1.345 -1.8531,0 -3.4372,-0.657 -4.7523,-1.972 -1.3151,-1.315 -1.9726,-2.899 -1.9726,-4.752 0,-1.854 0.6575,-3.438 1.9726,-4.753 1.3151,-1.315 2.8992,-1.972 4.7523,-1.972 1.4944,0 2.8393,0.448 4.0349,1.345 0,-1.112 -0.3946,-2.063 -1.1836,-2.852 -0.7891,-0.789 -1.7395,-1.183 -2.8513,-1.183 -0.7771,0 -1.5602,0.269 -2.3493,0.807 -0.7771,0.526 -1.2612,0.789 -1.4525,0.789 -0.3587,0 -0.6815,-0.138 -0.9684,-0.413 -0.275,-0.275 -0.4125,-0.597 -0.4125,-0.968 0,-0.287 0.1435,-0.598 0.4304,-0.933 1.0999,-1.315 2.684,-1.972 4.7522,-1.972 1.8531,0 3.4372,0.657 4.7523,1.972 1.315,1.315 1.9726,2.9 1.9726,4.753 z m -2.69,-5.379 c 0,-1.112 -0.3945,-2.063 -1.1835,-2.852 -0.7891,-0.789 -1.7395,-1.183 -2.8514,-1.183 -1.1118,0 -2.0622,0.394 -2.8513,1.183 -0.789,0.789 -1.1836,1.74 -1.1836,2.852 0,1.111 0.3946,2.062 1.1836,2.851 0.7891,0.789 1.7395,1.183 2.8513,1.183 1.1119,0 2.0623,-0.394 2.8514,-1.183 0.789,-0.789 1.1835,-1.74 1.1835,-2.851 z m 18.83,-21.592 c 0,0.933 -0.359,1.399 -1.076,1.399 -0.251,0 -0.658,-0.221 -1.22,-0.663 -0.562,-0.443 -1.142,-0.664 -1.739,-0.664 -0.742,0 -1.375,0.263 -1.901,0.789 -0.526,0.526 -0.789,1.16 -0.789,1.901 v 6.725 h 2.69 c 0.896,0 1.345,0.448 1.345,1.345 0,0.896 -0.449,1.345 -1.345,1.345 h -2.69 v 14.794 c 0,0.897 -0.449,1.345 -1.345,1.345 -0.897,0 -1.345,-0.448 -1.345,-1.345 v -14.794 h -2.69 c -0.897,0 -1.345,-0.449 -1.345,-1.345 0,-0.897 0.448,-1.345 1.345,-1.345 h 2.69 v -6.725 c 0,-1.483 0.526,-2.75 1.578,-3.802 1.052,-1.052 2.319,-1.578 3.802,-1.578 1.004,0 1.877,0.185 2.618,0.556 0.944,0.466 1.417,1.154 1.417,2.062 z"
       id="text3"
       style="font-weight:500;font-size:43.039px;font-family:'eurofurence classic';-inkscape-font-specification:'eurofurence classic Medium';fill:#5c5987;stroke:#5c5987;stroke-width:0;stroke-dasharray:none"
       aria-label="leaf" /><path
       fill="#5c5987"
       d="m 47.3097,41.0601 10.9031,8.1661 10.833,-8.1631 c 0.646,-0.4866 1.026,-1.2483 1.026,-2.0569 V 11.8658 c 0,-0.8065 -0.387,-1.5639 -1.041,-2.0365 l -9.777,-7.069 C 58.6288,2.3084 57.7878,2.2948 57.1488,2.7262 L 47.467,9.2599 c -0.6659,0.4494 -1.0663,1.1991 -1.0695,2.0024 L 46.287,39.0062 c -0.0032,0.8079 0.3761,1.5696 1.0227,2.0539 z"
       fill-rule="nonzero"
       id="path3"
       style="fill:#000000;fill-opacity:0;stroke:#5c5987;stroke-width:2.965;stroke-linecap:butt;stroke-linejoin:round;stroke-miterlimit:10;stroke-dasharray:none;stroke-dashoffset:0;stroke-opacity:1" /><path
       stroke="#5c5987"
       stroke-width="4"
       stroke-linejoin="round"
       stroke-linecap="butt"
       d="m 46.2487,25.2957 11.9641,8.9732"
       fill-rule="nonzero"
       id="path5"
       style="fill:none;stroke:#5c5987;stroke-width:2.965;stroke-linecap:butt;stroke-linejoin:round;stroke-miterlimit:10;stroke-dasharray:none;stroke-dashoffset:0;stroke-opacity:1" /><path
       stroke="#5c5987"
       stroke-width="4"
       stroke-linejoin="round"
       stroke-linecap="butt"
       d="m 70.1778,25.2957 -11.965,8.9732"
       fill-rule="nonzero"
       id="path7"
       style="fill:none;stroke:#5c5987;stroke-width:2.965;stroke-linecap:butt;stroke-linejoin:round;stroke-miterlimit:10;stroke-dasharray:none;stroke-dashoffset:0;stroke-opacity:1" /><path
       stroke="#5c5987"
       stroke-width="4"
       stroke-linejoin="round"
       stroke-linecap="butt"
       d="m 46.2487,10.3384 11.9641,8.9732"
       fill-rule="nonzero"
       id="path35"
       style="fill:none;stroke:#5c5987;stroke-width:2.965;stroke-linecap:butt;stroke-linejoin:round;stroke-miterlimit:10;stroke-dasharray:none;stroke-dashoffset:0;stroke-opacity:1" /><path
       stroke="#5c5987"
       stroke-width="4"
       stroke-linejoin="round"
       stroke-linecap="butt"
       d="m 70.1778,10.3384 -11.965,8.9732"
       fill-rule="nonzero"
       id="path37"
       style="fill:none;stroke:#5c5987;stroke-width:2.965;stroke-linecap:butt;stroke-linejoin:round;stroke-miterlimit:10;stroke-dasharray:none;stroke-dashoffset:0;stroke-opacity:1" /><path
       stroke="#5c5987"
       stroke-width="4"
       stroke-linejoin="round"
       stroke-linecap="butt"
       d="m 58.213,19.3116 -2e-4,29.9107"
       fill-rule="nonzero"
       id="path39"
       style="fill:none;stroke:#5c5987;stroke-width:2.965;stroke-linecap:butt;stroke-linejoin:round;stroke-miterlimit:10;stroke-dasharray:none;stroke-dashoffset:0;stroke-opacity:1" /><path
       stroke="#5c5987"
       stroke-width="4"
       stroke-linejoin="round"
       stroke-linecap="butt"
       d="M 58.2328,62.9558 V 33.3623"
       fill-rule="nonzero"
       id="path39-1"
       style="fill:none;stroke:#5c5987;stroke-width:2.94924;stroke-linecap:butt;stroke-linejoin:round;stroke-miterlimit:10;stroke-dasharray:none;stroke-dashoffset:0;stroke-opacity:1" /></g>

  <script type="text/javascript"><![CDATA[
    var KEY = { w:87, a:65, s:83, d:68 };
    var circle = document.getElementById("mouseblob");
    var mask = document.getElementById("mousemask");

    var svg = document.querySelector('svg');

    // Create an SVGPoint for future math
    var pt = svg.createSVGPoint();

    // Get point in global SVG space
    function cursorPoint(evt){
      pt.x = evt.clientX; pt.y = evt.clientY;
      return pt.matrixTransform(svg.getScreenCTM().inverse());
    }

    svg.addEventListener('mousemove',(evt) => {
      var loc = cursorPoint(evt);
      // Use loc.x and loc.y here
      circle.setAttribute('cx',loc.x);
      circle.setAttribute('cy',loc.y);
      mask.setAttribute('cx',loc.x);
      mask.setAttribute('cy',loc.y);
    },false);

    svg.addEventListener('mouseout', (event) => {
      circle.setAttribute('cx', 1000);
      circle.setAttribute('cy', 1000);
      mask.setAttribute('cx', 1000);
      mask.setAttribute('cy', 1000);
    })

  ]]></script>
</svg>