<?xml version="1.0" encoding="UTF-8" standalone="no"?>
<!-- Created with Inkscape (http://www.inkscape.org/) -->

<svg
   width="115.90163mm"
   height="141.0584mm"
   viewBox="0 0 115.90163 141.05839"
   version="1.1"
   id="svg1"
   xml:space="preserve"
   inkscape:version="1.4.2 (f4327f4, 2025-05-13)"
   sodipodi:docname="mintlogo_eufur.svg"
   inkscape:export-filename="mintlogo_eufur.svg"
   inkscape:export-xdpi="96"
   inkscape:export-ydpi="96"
   xmlns:inkscape="http://www.inkscape.org/namespaces/inkscape"
   xmlns:sodipodi="http://sodipodi.sourceforge.net/DTD/sodipodi-0.dtd"
   xmlns="http://www.w3.org/2000/svg"
   xmlns:svg="http://www.w3.org/2000/svg"><sodipodi:namedview
     id="namedview1"
     pagecolor="#ffffff"
     bordercolor="#000000"
     borderopacity="0.25"
     inkscape:showpageshadow="2"
     inkscape:pageopacity="0.0"
     inkscape:pagecheckerboard="0"
     inkscape:deskcolor="#d1d1d1"
     inkscape:document-units="mm"
     inkscape:zoom="0.5"
     inkscape:cx="-424"
     inkscape:cy="151"
     inkscape:window-width="2560"
     inkscape:window-height="1369"
     inkscape:window-x="-8"
     inkscape:window-y="453"
     inkscape:window-maximized="1"
     inkscape:current-layer="mintlogo" /><defs
     id="defs1"><inkscape:path-effect
       effect="fillet_chamfer"
       id="path-effect2"
       is_visible="true"
       lpeversion="1"
       nodesatellites_param="F,0,0,1,0,1.2841,0,1 @ F,0,0,1,0,0,0,1 @ F,0,0,1,0,1.2841,0,1 @ F,0,0,1,0,1.2841,0,1 @ F,0,0,1,0,1.2841,0,1 @ F,0,0,1,0,1.2841,0,1"
       radius="0"
       unit="px"
       method="auto"
       mode="F"
       chamfer_steps="1"
       flexible="false"
       use_knot_distance="true"
       apply_no_radius="true"
       apply_with_radius="true"
       only_selected="false"
       hide_knots="false" /><inkscape:path-effect
       effect="fillet_chamfer"
       id="path-effect1"
       nodesatellites_param="F,0,0,1,0,0,0,1 @ F,0,0,1,0,0,0,1 @ F,0,0,1,0,0,0,1 @ F,0,0,1,0,0,0,1 @ F,0,0,1,0,0,0,1 @ F,0,0,1,0,0,0,1"
       is_visible="true"
       lpeversion="1"
       radius="0"
       unit="px"
       method="auto"
       mode="F"
       chamfer_steps="1"
       flexible="false"
       use_knot_distance="true"
       apply_no_radius="true"
       apply_with_radius="true"
       only_selected="false"
       hide_knots="false" /></defs><g
     inkscape:groupmode="layer"
     id="mintlogo"
     inkscape:label="mintlogo"><path
       style="-inkscape-font-specification:&quot;eurofurence classic Medium&quot;;fill:#9be2b9;font-family:&quot;eurofurence classic&quot;;font-size:43.0389px;font-weight:500;stroke:#9be2b9;stroke-dasharray:none;stroke-width:0.0"
       d="M 24.2094 79.3222 C 24.2094 80.2188 23.7611 80.6671 22.8644 80.6671 C 21.9678 80.6671 21.5194 80.2188 21.5194 79.3222 L 21.5194 68.5624 C 21.5194 67.4506 21.1249 66.5001 20.3359 65.7111 C 19.5468 64.9221 18.5964 64.5275 17.4845 64.5275 C 16.3727 64.5275 15.4223 64.9221 14.6332 65.7111 C 13.8442 66.5001 13.4497 67.4506 13.4497 68.5624 L 13.4497 79.3222 C 13.4497 80.2188 13.0013 80.6671 12.1047 80.6671 C 11.208 80.6671 10.7597 80.2188 10.7597 79.3222 L 10.7597 68.5624 C 10.7597 67.4506 10.3652 66.5001 9.57615 65.7111 C 8.7871 64.9221 7.83666 64.5275 6.72482 64.5275 C 5.61298 64.5275 4.66254 64.9221 3.8735 65.7111 C 3.08445 66.5001 2.68993 67.4506 2.68993 68.5624 L 2.68993 79.3222 C 2.68993 80.2188 2.2416 80.6671 1.34496 80.6671 C 0.448317 80.6671 -5e-06 80.2188 -5e-06 79.3222 L -5e-06 63.1826 C -5e-06 62.2859 0.448317 61.8376 1.34496 61.8376 C 2.25356 61.8376 2.70188 62.2859 2.68993 63.1826 C 3.88545 62.2859 5.23042 61.8376 6.72482 61.8376 C 8.96045 61.8376 10.7537 62.7342 12.1047 64.5275 C 13.4556 62.7342 15.2489 61.8376 17.4845 61.8376 C 19.3376 61.8376 20.9217 62.4951 22.2368 63.8102 C 23.5518 65.1253 24.2094 66.7094 24.2094 68.5624 Z M 32.0819 55.8122 C 32.0819 56.374 31.8786 56.8463 31.4722 57.2289 C 31.0776 57.6114 30.5994 57.8027 30.0375 57.8027 C 29.4756 57.8027 28.9914 57.6114 28.585 57.2289 C 28.1904 56.8463 27.9932 56.374 27.9932 55.8122 C 27.9932 55.2503 28.1904 54.772 28.585 54.3775 C 28.9914 53.971 29.4756 53.7678 30.0375 53.7678 C 30.5994 53.7678 31.0776 53.971 31.4722 54.3775 C 31.8786 54.772 32.0819 55.2503 32.0819 55.8122 Z M 31.3825 63.1826 L 31.3825 79.3222 C 31.3825 80.2188 30.9342 80.6671 30.0375 80.6671 C 29.1409 80.6671 28.6926 80.2188 28.6926 79.3222 L 28.6926 63.1826 C 28.6926 62.2859 29.1409 61.8376 30.0375 61.8376 C 30.9342 61.8376 31.3825 62.2859 31.3825 63.1826 Z M 50.212 79.3222 C 50.212 80.2188 49.7637 80.6671 48.8671 80.6671 C 47.9704 80.6671 47.5221 80.2188 47.5221 79.3222 L 47.5221 68.5624 C 47.5221 67.4506 47.1276 66.5001 46.3385 65.7111 C 45.5495 64.9221 44.599 64.5275 43.4872 64.5275 C 42.3754 64.5275 41.4249 64.9221 40.6359 65.7111 C 39.8468 66.5001 39.4523 67.4506 39.4523 68.5624 L 39.4523 79.3222 C 39.4523 80.2188 39.004 80.6671 38.1073 80.6671 C 37.2107 80.6671 36.7624 80.2188 36.7624 79.3222 L 36.7624 63.1826 C 36.7624 62.2859 37.2107 61.8376 38.1073 61.8376 C 39.004 61.8376 39.4523 62.2859 39.4523 63.1826 C 40.6478 62.2859 41.9928 61.8376 43.4872 61.8376 C 45.3403 61.8376 46.9243 62.4951 48.2394 63.8102 C 49.5545 65.1253 50.212 66.7094 50.212 68.5624 Z M 66.3516 78.0489 C 66.3516 78.9575 65.8793 79.6449 64.9349 80.1112 C 64.1937 80.4818 63.3209 80.6671 62.3167 80.6671 C 60.8342 80.6671 59.567 80.1411 58.5149 79.089 C 57.4628 78.037 56.9368 76.7697 56.9368 75.2873 L 56.9368 64.5275 L 54.2469 64.5275 C 53.3502 64.5275 52.9019 64.0792 52.9019 63.1826 C 52.9019 62.2859 53.3502 61.8376 54.2469 61.8376 L 56.9368 61.8376 L 56.9368 55.1128 C 56.9368 54.2161 57.3851 53.7678 58.2818 53.7678 C 59.1784 53.7678 59.6267 54.2161 59.6267 55.1128 L 59.6267 61.8376 L 62.3167 61.8376 C 63.2133 61.8376 63.6616 62.2859 63.6616 63.1826 C 63.6616 64.0792 63.2133 64.5275 62.3167 64.5275 L 59.6267 64.5275 L 59.6267 75.2873 C 59.6267 76.0285 59.8898 76.6621 60.4158 77.1881 C 60.9418 77.7142 61.5755 77.9772 62.3167 77.9772 C 62.9144 77.9772 63.4943 77.756 64.0562 77.3137 C 64.6181 76.8713 65.0245 76.6502 65.2756 76.6502 C 65.9929 76.6502 66.3516 77.1164 66.3516 78.0489 Z"
       id="text1"
       aria-label="mint" /><path
       d="M 43.9094 94.1628 C 43.9094 94.5215 43.7719 94.8443 43.497 95.1312 C 43.222 95.4062 42.8992 95.5437 42.5286 95.5437 C 42.409 95.5437 41.7395 95.1492 40.5201 94.3601 C 39.3126 93.5591 38.0872 93.1586 36.8439 93.1586 C 34.9908 93.1586 33.4067 93.8161 32.0916 95.1312 C 30.7765 96.4463 30.119 98.0304 30.119 99.8834 C 30.119 101.737 30.7765 103.321 32.0916 104.636 C 33.4067 105.951 34.9908 106.608 36.8439 106.608 C 38.0872 106.608 39.3126 106.214 40.5201 105.425 C 41.7395 104.636 42.409 104.241 42.5286 104.241 C 42.8872 104.241 43.2041 104.379 43.479 104.654 C 43.766 104.929 43.9094 105.251 43.9094 105.622 C 43.9094 105.921 43.766 106.232 43.479 106.554 C 42.7737 107.391 41.7635 108.067 40.4484 108.581 C 39.2289 109.059 38.0274 109.298 36.8439 109.298 C 34.2496 109.298 32.0319 108.378 30.1907 106.537 C 28.3496 104.695 27.4291 102.478 27.4291 99.8834 C 27.4291 97.2891 28.3496 95.0714 30.1907 93.2303 C 32.0319 91.3892 34.2496 90.4687 36.8439 90.4687 C 38.0274 90.4687 39.2289 90.7078 40.4484 91.186 C 41.7635 91.7001 42.7796 92.3815 43.497 93.2303 C 43.7719 93.5531 43.9094 93.864 43.9094 94.1628 Z M 60.9106 111.204 C 60.9086 112.101 60.4974 109.298 59.6007 109.298 C 58.7041 109.298 58.2308 111.171 58.2324 110.274 L 58.2558 97.1935 C 58.2578 96.0817 57.8613 95.1312 57.0722 94.3422 C 56.2832 93.5531 55.3327 93.1586 54.2209 93.1586 C 53.109 93.1586 52.1586 93.5531 51.3695 94.3422 C 50.5805 95.1312 50.186 96.0817 50.186 97.1935 L 50.186 107.953 C 50.186 108.85 49.7376 109.298 48.841 109.298 C 47.9443 109.298 47.5184 108.276 47.5185 107.38 L 47.5226 79.1332 C 47.5227 78.2366 47.9443 78.3639 48.841 78.3639 C 49.7376 78.3639 50.2127 77.9522 50.2109 78.8488 L 50.1859 91.8136 C 51.3815 90.917 52.7264 90.4687 54.2208 90.4687 C 56.0739 90.4687 57.658 91.1262 58.9731 92.4413 C 60.2881 93.7564 60.9503 95.3405 60.9457 97.1935 Z M 68.1188 91.8136 L 68.1188 107.953 C 68.1188 108.85 67.6705 109.298 66.7739 109.298 C 65.8772 109.298 65.4289 108.85 65.4289 107.953 L 65.4289 91.8136 C 65.4289 90.917 65.8772 90.4687 66.7739 90.4687 C 67.6705 90.4687 68.1188 90.917 68.1188 91.8136 Z M 92.3283 99.8835 C 92.3283 102.478 91.4077 104.695 89.5666 106.537 C 87.7255 108.378 85.5078 109.298 82.9135 109.298 C 80.2833 109.298 78.0417 108.354 76.1886 106.465 L 76.1886 114.436 C 76.1886 115.332 75.7403 115.781 74.8437 115.781 C 73.947 115.781 73.4987 115.332 73.4987 114.436 L 73.4987 91.8136 C 73.4987 90.917 73.947 90.4687 74.8437 90.4687 C 75.5371 90.4687 75.9615 90.8034 76.1169 91.4729 C 76.1886 91.724 76.2125 92.3337 76.1886 93.3021 C 78.0297 91.4131 80.2713 90.4687 82.9135 90.4687 C 85.5078 90.4687 87.7255 91.3892 89.5666 93.2303 C 91.4077 95.0714 92.3282 97.2892 92.3282 99.8835 Z M 89.6383 99.8835 C 89.6383 98.0304 88.9808 96.4463 87.6657 95.1312 C 86.3506 93.8161 84.7666 93.1586 82.9135 93.1586 C 81.0604 93.1586 79.4764 93.8161 78.1613 95.1312 C 76.8462 96.4463 76.1886 98.0304 76.1886 99.8835 C 76.1886 101.737 76.8462 103.321 78.1613 104.636 C 79.4764 105.951 81.0604 106.608 82.9135 106.608 C 84.7666 106.608 86.3506 105.951 87.6657 104.636 C 88.9808 103.321 89.6383 101.737 89.6383 99.8835 Z"
       id="text2"
       mask="none"
       style="-inkscape-font-specification:&quot;eurofurence classic Medium&quot;;fill:#9be2b9;fill-opacity:1;font-family:&quot;eurofurence classic&quot;;font-size:43.039px;font-weight:500;stroke:#9be2b9;stroke-dasharray:none;stroke-opacity:1;stroke-width:0.0"
       aria-label="chip" /><path
       d="M 64.9542 139.713 C 64.9542 140.61 64.5058 141.058 63.6092 141.058 C 62.1267 141.058 60.8595 140.532 59.8074 139.48 C 58.7554 138.428 58.2293 137.161 58.2293 135.678 L 58.2293 107.831 C 58.2293 106.934 58.6776 106.486 59.5743 106.486 C 60.4709 106.486 60.9193 106.934 60.9193 107.831 L 60.9193 135.678 C 60.9193 136.42 61.1823 137.053 61.7083 137.579 C 62.2343 138.105 62.868 138.368 63.6092 138.368 C 64.5058 138.368 64.9542 138.817 64.9542 139.713 Z M 84.519 132.005 C 84.519 132.22 84.4532 132.459 84.3217 132.722 C 83.5685 134.133 82.4268 135.268 80.8965 136.129 C 79.3782 136.99 77.8001 137.42 76.1622 137.42 C 73.568 137.42 71.3502 136.5 69.5091 134.659 C 67.668 132.818 66.7475 130.6 66.7475 128.006 C 66.7475 125.411 67.668 123.194 69.5091 121.352 C 71.3502 119.511 73.568 118.591 76.1622 118.591 C 77.0828 118.591 78.0512 118.764 79.0674 119.111 C 80.2151 119.505 81.3389 120.139 82.4388 121.012 C 83.8017 122.076 84.4831 123.086 84.4831 124.042 C 84.4831 124.521 84.2619 124.885 83.8196 125.136 L 71.1231 132.471 C 72.4621 133.977 74.1418 134.73 76.1622 134.73 C 78.2783 134.73 79.97 133.959 81.2373 132.417 C 81.3927 132.19 81.6437 131.843 81.9904 131.377 C 82.3491 130.911 82.7197 130.678 83.1023 130.678 C 83.4729 130.678 83.8017 130.809 84.0886 131.072 C 84.3755 131.335 84.519 131.646 84.519 132.005 Z M 81.2014 123.54 C 79.8624 122.034 78.1827 121.281 76.1622 121.281 C 74.3092 121.281 72.7251 121.938 71.41 123.253 C 70.0949 124.568 69.4374 126.152 69.4374 128.006 C 69.4374 128.735 69.551 129.446 69.7781 130.14 Z M 99.762 136.075 C 99.762 136.972 99.3137 137.42 98.417 137.42 C 97.5084 137.42 97.0601 136.972 97.0721 136.075 C 95.8765 136.972 94.5316 137.42 93.0372 137.42 C 91.1841 137.42 89.6 136.763 88.2849 135.448 C 86.9698 134.133 86.3123 132.549 86.3123 130.696 C 86.3123 128.842 86.9698 127.258 88.2849 125.943 C 89.6 124.628 91.1841 123.971 93.0372 123.971 C 94.5316 123.971 95.8765 124.419 97.0721 125.316 C 97.0721 124.204 96.6775 123.253 95.8885 122.464 C 95.0994 121.675 94.149 121.281 93.0372 121.281 C 92.2601 121.281 91.477 121.55 90.6879 122.088 C 89.9108 122.614 89.4267 122.877 89.2354 122.877 C 88.8767 122.877 88.5539 122.739 88.267 122.464 C 87.992 122.189 87.8545 121.867 87.8545 121.496 C 87.8545 121.209 87.998 120.898 88.2849 120.563 C 89.3848 119.248 90.9689 118.591 93.0371 118.591 C 94.8902 118.591 96.4743 119.248 97.7894 120.563 C 99.1044 121.878 99.762 123.463 99.762 125.316 Z M 97.072 130.696 C 97.072 129.584 96.6775 128.633 95.8885 127.844 C 95.0994 127.055 94.149 126.661 93.0371 126.661 C 91.9253 126.661 90.9749 127.055 90.1858 127.844 C 89.3968 128.633 89.0022 129.584 89.0022 130.696 C 89.0022 131.807 89.3968 132.758 90.1858 133.547 C 90.9749 134.336 91.9253 134.73 93.0371 134.73 C 94.149 134.73 95.0994 134.336 95.8885 133.547 C 96.6775 132.758 97.072 131.807 97.072 130.696 Z M 115.902 109.104 C 115.902 110.037 115.543 110.503 114.826 110.503 C 114.575 110.503 114.168 110.282 113.606 109.84 C 113.044 109.397 112.464 109.176 111.867 109.176 C 111.125 109.176 110.492 109.439 109.966 109.965 C 109.44 110.491 109.177 111.125 109.177 111.866 L 109.177 118.591 L 111.867 118.591 C 112.763 118.591 113.212 119.039 113.212 119.936 C 113.212 120.832 112.763 121.281 111.867 121.281 L 109.177 121.281 L 109.177 136.075 C 109.177 136.972 108.728 137.42 107.832 137.42 C 106.935 137.42 106.487 136.972 106.487 136.075 L 106.487 121.281 L 103.797 121.281 C 102.9 121.281 102.452 120.832 102.452 119.936 C 102.452 119.039 102.9 118.591 103.797 118.591 L 106.487 118.591 L 106.487 111.866 C 106.487 110.383 107.013 109.116 108.065 108.064 C 109.117 107.012 110.384 106.486 111.867 106.486 C 112.871 106.486 113.744 106.671 114.485 107.042 C 115.429 107.508 115.902 108.196 115.902 109.104 Z"
       id="text3"
       style="-inkscape-font-specification:&quot;eurofurence classic Medium&quot;;fill:#9be2b9;font-family:&quot;eurofurence classic&quot;;font-size:43.039px;font-weight:500;stroke:#9be2b9;stroke-dasharray:none;stroke-width:0.0"
       aria-label="leaf" /><path
       fill="#5c5987"
       d="M 47.3097 41.0601 L 58.2128 49.2262 L 69.0458 41.0631 C 69.6918 40.5765 70.0718 39.8148 70.0718 39.0062 L 70.0718 11.8658 C 70.0718 11.0593 69.6848 10.3019 69.0308 9.8293 L 59.2538 2.7603 C 58.6288 2.3084 57.7878 2.2948 57.1488 2.7262 L 47.467 9.2599 C 46.8011 9.7093 46.4007 10.459 46.3975 11.2623 L 46.287 39.0062 C 46.2838 39.8141 46.6631 40.5758 47.3097 41.0601 Z"
       fill-rule="nonzero"
       id="path3"
       style="fill:#000000;fill-opacity:0;stroke:#9be2b9;stroke-dasharray:none;stroke-dashoffset:0;stroke-linecap:butt;stroke-linejoin:round;stroke-miterlimit:10;stroke-opacity:1;stroke-width:2.965" /><path
       stroke="#9be2b9"
       stroke-width="4"
       stroke-linejoin="round"
       stroke-linecap="butt"
       d="M 46.2487 25.2957 L 58.2128 34.2689"
       fill-rule="nonzero"
       id="path5"
       style="fill:none;stroke:#9be2b9;stroke-dasharray:none;stroke-dashoffset:0;stroke-linecap:butt;stroke-linejoin:round;stroke-miterlimit:10;stroke-opacity:1;stroke-width:2.96500106868" /><path
       stroke="#9be2b9"
       stroke-width="4"
       stroke-linejoin="round"
       stroke-linecap="butt"
       d="M 70.1778 25.2957 L 58.2128 34.2689"
       fill-rule="nonzero"
       id="path7"
       style="fill:none;stroke:#9be2b9;stroke-dasharray:none;stroke-dashoffset:0;stroke-linecap:butt;stroke-linejoin:round;stroke-miterlimit:10;stroke-opacity:1;stroke-width:2.96500106868" /><path
       stroke="#9be2b9"
       stroke-width="4"
       stroke-linejoin="round"
       stroke-linecap="butt"
       d="M 46.2487 10.3384 L 58.2128 19.3116"
       fill-rule="nonzero"
       id="path35"
       style="fill:none;stroke:#9be2b9;stroke-dasharray:none;stroke-dashoffset:0;stroke-linecap:butt;stroke-linejoin:round;stroke-miterlimit:10;stroke-opacity:1;stroke-width:2.96500106868" /><path
       stroke="#9be2b9"
       stroke-width="4"
       stroke-linejoin="round"
       stroke-linecap="butt"
       d="M 70.1778 10.3384 L 58.2128 19.3116"
       fill-rule="nonzero"
       id="path37"
       style="fill:none;stroke:#9be2b9;stroke-dasharray:none;stroke-dashoffset:0;stroke-linecap:butt;stroke-linejoin:round;stroke-miterlimit:10;stroke-opacity:1;stroke-width:2.96500106868" /><path
       stroke="#9be2b9"
       stroke-width="4"
       stroke-linejoin="round"
       stroke-linecap="butt"
       d="M 58.213 19.3116 L 58.2128 49.2223"
       fill-rule="nonzero"
       id="path39"
       style="fill:none;stroke:#9be2b9;stroke-dasharray:none;stroke-dashoffset:0;stroke-linecap:butt;stroke-linejoin:round;stroke-miterlimit:10;stroke-opacity:1;stroke-width:2.965" /><path
       stroke="#9be2b9"
       stroke-width="4"
       stroke-linejoin="round"
       stroke-linecap="butt"
       d="M 58.2328 62.9558 L 58.2328 33.3623"
       fill-rule="nonzero"
       id="path39-1"
       style="fill:none;stroke:#9be2b9;stroke-dasharray:none;stroke-dashoffset:0;stroke-linecap:butt;stroke-linejoin:round;stroke-miterlimit:10;stroke-opacity:1;stroke-width:2.94923811924" /></g></svg>
