<?xml version="1.0" encoding="UTF-8" standalone="no"?>
<!-- Created with Inkscape (http://www.inkscape.org/) -->

<svg
   width="115.90163mm"
   height="141.0584mm"
   viewBox="0 0 115.90163 141.05839"
   version="1.1"
   id="svg1"
   xml:space="preserve"
   inkscape:version="1.4.2 (f4327f4, 2025-05-13)"
   sodipodi:docname="mintlogo_eufur.svg"
   xmlns:inkscape="http://www.inkscape.org/namespaces/inkscape"
   xmlns:sodipodi="http://sodipodi.sourceforge.net/DTD/sodipodi-0.dtd"
   xmlns="http://www.w3.org/2000/svg"
   xmlns:svg="http://www.w3.org/2000/svg"><sodipodi:namedview
     id="namedview1"
     pagecolor="#ffffff"
     bordercolor="#000000"
     borderopacity="0.25"
     inkscape:showpageshadow="2"
     inkscape:pageopacity="0.0"
     inkscape:pagecheckerboard="0"
     inkscape:deskcolor="#d1d1d1"
     inkscape:document-units="mm"
     inkscape:zoom="0.5"
     inkscape:cx="-424"
     inkscape:cy="151"
     inkscape:window-width="2560"
     inkscape:window-height="1369"
     inkscape:window-x="-8"
     inkscape:window-y="453"
     inkscape:window-maximized="1"
     inkscape:current-layer="layer2" /><defs
     id="defs1"><inkscape:path-effect
       effect="fillet_chamfer"
       id="path-effect2"
       is_visible="true"
       lpeversion="1"
       nodesatellites_param="F,0,0,1,0,1.2841,0,1 @ F,0,0,1,0,0,0,1 @ F,0,0,1,0,1.2841,0,1 @ F,0,0,1,0,1.2841,0,1 @ F,0,0,1,0,1.2841,0,1 @ F,0,0,1,0,1.2841,0,1"
       radius="0"
       unit="px"
       method="auto"
       mode="F"
       chamfer_steps="1"
       flexible="false"
       use_knot_distance="true"
       apply_no_radius="true"
       apply_with_radius="true"
       only_selected="false"
       hide_knots="false" /><inkscape:path-effect
       effect="fillet_chamfer"
       id="path-effect1"
       nodesatellites_param="F,0,0,1,0,0,0,1 @ F,0,0,1,0,0,0,1 @ F,0,0,1,0,0,0,1 @ F,0,0,1,0,0,0,1 @ F,0,0,1,0,0,0,1 @ F,0,0,1,0,0,0,1"
       is_visible="true"
       lpeversion="1"
       radius="0"
       unit="px"
       method="auto"
       mode="F"
       chamfer_steps="1"
       flexible="false"
       use_knot_distance="true"
       apply_no_radius="true"
       apply_with_radius="true"
       only_selected="false"
       hide_knots="false" /></defs><g
     inkscape:groupmode="layer"
     id="layer2"
     inkscape:label="mintlogo"
     transform="translate(-47.272195,-14.260863)"><path
       style="font-weight:500;font-size:43.0389px;font-family:'eurofurence classic';-inkscape-font-specification:'eurofurence classic Medium';fill:#9be2b9;stroke:#9be2b9;stroke-width:0;stroke-dasharray:none"
       d="m 71.481575,93.583051 q 0,1.344966 -1.344965,1.344966 -1.344966,0 -1.344966,-1.344966 V 82.823326 q 0,-1.667757 -1.183569,-2.851327 -1.18357,-1.183569 -2.851327,-1.183569 -1.667758,0 -2.851327,1.183569 -1.18357,1.18357 -1.18357,2.851327 v 10.759725 q 0,1.344966 -1.344966,1.344966 -1.344965,0 -1.344965,-1.344966 V 82.823326 q 0,-1.667757 -1.18357,-2.851327 -1.18357,-1.183569 -2.851327,-1.183569 -1.667757,0 -2.851327,1.183569 -1.18357,1.18357 -1.18357,2.851327 v 10.759725 q 0,1.344966 -1.344965,1.344966 -1.344966,0 -1.344966,-1.344966 V 77.443464 q 0,-1.344965 1.344966,-1.344965 1.362898,0 1.344965,1.344965 1.793288,-1.344965 4.034897,-1.344965 3.353447,0 5.379862,2.689931 2.026415,-2.689931 5.379863,-2.689931 2.779595,0 4.752211,1.972616 1.972616,1.972616 1.972616,4.752211 z M 79.35408,70.073053 q 0,0.842845 -0.609718,1.416697 -0.591785,0.573852 -1.43463,0.573852 -0.842845,0 -1.452563,-0.573852 -0.591784,-0.573852 -0.591784,-1.416697 0,-0.842845 0.591784,-1.43463 0.609718,-0.609718 1.452563,-0.609718 0.842845,0 1.43463,0.609718 0.609718,0.591785 0.609718,1.43463 z m -0.699382,7.370411 v 16.139587 q 0,1.344966 -1.344966,1.344966 -1.344965,0 -1.344965,-1.344966 V 77.443464 q 0,-1.344965 1.344965,-1.344965 1.344966,0 1.344966,1.344965 z m 18.82952,16.139587 q 0,1.344966 -1.344965,1.344966 -1.344966,0 -1.344966,-1.344966 V 82.823326 q 0,-1.667757 -1.18357,-2.851327 -1.183569,-1.183569 -2.851327,-1.183569 -1.667757,0 -2.851327,1.183569 -1.183569,1.18357 -1.183569,2.851327 v 10.759725 q 0,1.344966 -1.344966,1.344966 -1.344966,0 -1.344966,-1.344966 V 77.443464 q 0,-1.344965 1.344966,-1.344965 1.344966,0 1.344966,1.344965 1.793287,-1.344965 4.034896,-1.344965 2.779596,0 4.752212,1.972616 1.972616,1.972616 1.972616,4.752211 z m 16.139562,-1.273234 q 0,1.362898 -1.4167,2.062281 -1.11184,0.555919 -2.6182,0.555919 -2.22368,0 -3.80177,-1.578093 -1.57809,-1.578093 -1.57809,-3.80177 V 78.78843 h -2.68993 q -1.34497,0 -1.34497,-1.344966 0,-1.344965 1.34497,-1.344965 h 2.68993 v -6.724828 q 0,-1.344966 1.34496,-1.344966 1.34497,0 1.34497,1.344966 v 6.724828 h 2.68993 q 1.34497,0 1.34497,1.344965 0,1.344966 -1.34497,1.344966 h -2.68993 v 10.759724 q 0,1.111839 0.78905,1.900885 0.78904,0.789047 1.90088,0.789047 0.89664,0 1.73949,-0.663517 0.84284,-0.663516 1.21943,-0.663516 1.07598,0 1.07598,1.398764 z"
       id="text1"
       aria-label="mint" /><path
       d="m 91.181623,108.42375 c 0,0.35865 -0.137486,0.68144 -0.412457,0.96837 -0.274971,0.27497 -0.597764,0.41246 -0.968377,0.41246 -0.119553,0 -0.789048,-0.39452 -2.008487,-1.18357 -1.207483,-0.80101 -2.432899,-1.20151 -3.676248,-1.20151 -1.853068,0 -3.437142,0.65754 -4.752223,1.97262 -1.315081,1.31508 -1.972621,2.89916 -1.972621,4.75223 0,1.85307 0.65754,3.43714 1.972621,4.75222 1.315081,1.31508 2.899155,1.97262 4.752223,1.97262 1.243349,0 2.468765,-0.39452 3.676248,-1.18357 1.219439,-0.78905 1.888934,-1.18357 2.008487,-1.18357 0.358658,0 0.675473,0.13748 0.950444,0.41245 0.286927,0.27497 0.43039,0.59777 0.43039,0.96838 0,0.29888 -0.143463,0.60972 -0.43039,0.93251 -0.705361,0.83687 -1.715582,1.51235 -3.030663,2.02642 -1.219438,0.47821 -2.420943,0.71732 -3.604516,0.71732 -2.594295,0 -4.811999,-0.92056 -6.653112,-2.76167 -1.841113,-1.84111 -2.76167,-4.05882 -2.76167,-6.65311 0,-2.5943 0.920557,-4.81201 2.76167,-6.65312 1.841113,-1.84111 4.058817,-2.76167 6.653112,-2.76167 1.183573,0 2.385078,0.23911 3.604516,0.71732 1.315081,0.51408 2.331279,1.19553 3.048596,2.04435 0.274971,0.32279 0.412457,0.63363 0.412457,0.93252 z m 17.001197,17.04108 c -0.002,0.89664 -0.41324,-1.9057 -1.30989,-1.9057 -0.89665,0 -1.36996,1.87254 -1.36836,0.9759 l 0.0234,-13.08062 c 0.002,-1.11184 -0.39452,-2.06229 -1.18357,-2.85134 -0.78905,-0.78905 -1.73949,-1.18357 -2.85133,-1.18357 -1.11184,0 -2.06229,0.39452 -2.851339,1.18357 -0.789048,0.78905 -1.183572,1.7395 -1.183572,2.85134 v 10.75975 c 0,0.89665 -0.448323,1.34497 -1.344969,1.34497 -0.896646,0 -1.322606,-1.02194 -1.322474,-1.91859 l 0.0041,-28.246406 c 1.31e-4,-0.89665 0.421694,-0.769288 1.31834,-0.769288 0.896646,0 1.371717,-0.411767 1.369987,0.484882 l -0.02502,12.964802 c 1.195528,-0.89665 2.540498,-1.34497 4.034907,-1.34497 1.85307,0 3.43714,0.65754 4.75222,1.97263 1.31508,1.31508 1.97726,2.89916 1.97262,4.75222 z m 7.20822,-19.3903 v 16.13963 c 0,0.89665 -0.44832,1.34497 -1.34497,1.34497 -0.89665,0 -1.34497,-0.44832 -1.34497,-1.34497 v -16.13963 c 0,-0.89665 0.44832,-1.34497 1.34497,-1.34497 0.89665,0 1.34497,0.44832 1.34497,1.34497 z m 24.20944,8.06982 c 0,2.59429 -0.92056,4.812 -2.76167,6.65311 -1.84111,1.84111 -4.05882,2.76167 -6.65311,2.76167 -2.63016,0 -4.87178,-0.94447 -6.72485,-2.8334 v 7.97074 c 0,0.89665 -0.44832,1.34497 -1.34497,1.34497 -0.89664,0 -1.34496,-0.44832 -1.34496,-1.34497 v -22.62194 c 0,-0.89665 0.44832,-1.34497 1.34496,-1.34497 0.69341,0 1.11782,0.33475 1.27324,1.00425 0.0717,0.25106 0.0956,0.86078 0.0717,1.82916 1.84111,-1.88894 4.08273,-2.83341 6.72485,-2.83341 2.59429,0 4.812,0.92056 6.65311,2.76167 1.84111,1.84111 2.76167,4.05882 2.76167,6.65312 z m -2.68994,0 c 0,-1.85307 -0.65754,-3.43715 -1.97262,-4.75223 -1.31508,-1.31508 -2.89915,-1.97262 -4.75222,-1.97262 -1.85307,0 -3.43714,0.65754 -4.75223,1.97262 -1.31508,1.31508 -1.97262,2.89916 -1.97262,4.75223 0,1.85307 0.65754,3.43714 1.97262,4.75222 1.31509,1.31508 2.89916,1.97262 4.75223,1.97262 1.85307,0 3.43714,-0.65754 4.75222,-1.97262 1.31508,-1.31508 1.97262,-2.89915 1.97262,-4.75222 z"
       id="text2"
       mask="none"
       style="font-weight:500;font-size:43.039px;font-family:'eurofurence classic';-inkscape-font-specification:'eurofurence classic Medium';fill:#9be2b9;fill-opacity:1;stroke:#9be2b9;stroke-width:0;stroke-dasharray:none;stroke-opacity:1"
       aria-label="chip" /><path
       d="m 112.22636,153.9743 c 0,0.89664 -0.44832,1.34496 -1.34496,1.34496 -1.48246,0 -2.74972,-0.52603 -3.80178,-1.57809 -1.05207,-1.05207 -1.5781,-2.31933 -1.5781,-3.80178 v -27.84746 c 0,-0.89665 0.44832,-1.34497 1.34497,-1.34497 0.89665,0 1.34497,0.44832 1.34497,1.34497 v 27.84746 c 0,0.74123 0.26302,1.37486 0.78905,1.90089 0.52603,0.52603 1.15966,0.78905 1.90089,0.78905 0.89664,0 1.34496,0.44832 1.34496,1.34497 z m 19.56482,-7.7088 c 0,0.2152 -0.0658,0.45431 -0.19726,0.71732 -0.75319,1.41072 -1.89492,2.54647 -3.42519,3.40725 -1.51832,0.86078 -3.09642,1.29117 -4.73429,1.29117 -2.59429,0 -4.812,-0.92056 -6.65311,-2.76167 -1.84111,-1.84111 -2.76167,-4.05881 -2.76167,-6.65311 0,-2.59429 0.92056,-4.812 2.76167,-6.65311 1.84111,-1.84111 4.05882,-2.76167 6.65311,-2.76167 0.92055,0 1.88893,0.17335 2.90513,0.52006 1.14771,0.39452 2.2715,1.02815 3.37139,1.90088 1.3629,1.06402 2.04435,2.07424 2.04435,3.03067 0,0.47821 -0.22117,0.84284 -0.66352,1.09391 l -12.6965,7.33456 c 1.33899,1.50637 3.01871,2.25955 5.03915,2.25955 2.11608,0 3.80775,-0.77112 5.07501,-2.31335 0.15542,-0.22715 0.40648,-0.57386 0.75319,-1.04011 0.35865,-0.46625 0.72927,-0.69938 1.11184,-0.69938 0.37061,0 0.69938,0.13151 0.98631,0.39452 0.28693,0.26302 0.43039,0.57386 0.43039,0.93251 z m -3.31759,-8.46433 c -1.33899,-1.50637 -3.01871,-2.25955 -5.03915,-2.25955 -1.85307,0 -3.43714,0.65754 -4.75223,1.97262 -1.31508,1.31508 -1.97262,2.89915 -1.97262,4.75222 0,0.72927 0.11358,1.44061 0.34073,2.13402 z m 18.5606,12.53511 c 0,0.89664 -0.44832,1.34496 -1.34497,1.34496 -0.9086,0 -1.35692,-0.44832 -1.34497,-1.34496 -1.19553,0.89664 -2.54049,1.34496 -4.0349,1.34496 -1.85307,0 -3.43715,-0.65754 -4.75223,-1.97262 -1.31508,-1.31508 -1.97262,-2.89915 -1.97262,-4.75222 0,-1.85307 0.65754,-3.43714 1.97262,-4.75222 1.31508,-1.31508 2.89916,-1.97262 4.75223,-1.97262 1.49441,0 2.83937,0.44832 4.0349,1.34496 0,-1.11184 -0.39452,-2.06228 -1.18357,-2.85133 -0.78905,-0.78905 -1.73949,-1.18357 -2.85133,-1.18357 -0.77709,0 -1.56017,0.26899 -2.34922,0.80698 -0.77709,0.52603 -1.26128,0.78905 -1.45256,0.78905 -0.35866,0 -0.68145,-0.13749 -0.96838,-0.41246 -0.27497,-0.27497 -0.41246,-0.59777 -0.41246,-0.96838 0,-0.28693 0.14346,-0.59776 0.43039,-0.93251 1.09989,-1.31508 2.68396,-1.97262 4.75223,-1.97262 1.85307,0 3.43714,0.65754 4.75222,1.97262 1.31508,1.31508 1.97262,2.89915 1.97262,4.75222 z m -2.68994,-5.37988 c 0,-1.11184 -0.39452,-2.06228 -1.18357,-2.85133 -0.78905,-0.78905 -1.73949,-1.18358 -2.85133,-1.18358 -1.11184,0 -2.06229,0.39453 -2.85134,1.18358 -0.78905,0.78905 -1.18357,1.73949 -1.18357,2.85133 0,1.11184 0.39452,2.06228 1.18357,2.85133 0.78905,0.78905 1.7395,1.18358 2.85134,1.18358 1.11184,0 2.06228,-0.39453 2.85133,-1.18358 0.78905,-0.78905 1.18357,-1.73949 1.18357,-2.85133 z m 18.82957,-21.59123 c 0,0.93251 -0.35866,1.39877 -1.07598,1.39877 -0.25106,0 -0.65754,-0.22117 -1.21944,-0.66352 -0.56189,-0.44235 -1.14172,-0.66352 -1.73949,-0.66352 -0.74123,0 -1.37486,0.26302 -1.90089,0.78905 -0.52603,0.52603 -0.78905,1.15966 -0.78905,1.90089 v 6.72484 h 2.68994 c 0.89665,0 1.34497,0.44832 1.34497,1.34497 0,0.89665 -0.44832,1.34497 -1.34497,1.34497 h -2.68994 v 14.79466 c 0,0.89664 -0.44832,1.34496 -1.34496,1.34496 -0.89665,0 -1.34497,-0.44832 -1.34497,-1.34496 v -14.79466 h -2.68994 c -0.89665,0 -1.34497,-0.44832 -1.34497,-1.34497 0,-0.89665 0.44832,-1.34497 1.34497,-1.34497 h 2.68994 v -6.72484 c 0,-1.48245 0.52603,-2.74971 1.57809,-3.80178 1.05207,-1.05207 2.31933,-1.5781 3.80178,-1.5781 1.00425,0 1.87698,0.18531 2.61821,0.55592 0.94447,0.46626 1.4167,1.15369 1.4167,2.06229 z"
       id="text3"
       style="font-weight:500;font-size:43.039px;font-family:'eurofurence classic';-inkscape-font-specification:'eurofurence classic Medium';fill:#9be2b9;stroke:#9be2b9;stroke-width:0;stroke-dasharray:none"
       aria-label="leaf" /><path
       fill="#5c5987"
       d="M 94.581893,23.909425 105.4852,15.7433 116.31846,23.906429 A 2.5754454,2.5754454 63.49946 0 1 117.344,25.9633 v 27.1404 a 2.5129503,2.5129503 117.06671 0 1 -1.04061,2.036454 l -9.77758,7.069092 a 1.8379719,1.8379719 179.07352 0 1 -2.10501,0.03404 L 94.739196,55.709613 A 2.4273817,2.4273817 61.892736 0 1 93.669687,53.70721 L 93.559213,25.96329 a 2.5533461,2.5533461 116.47008 0 1 1.02268,-2.053865 z"
       fill-rule="nonzero"
       id="path3"
       style="fill:#000000;fill-opacity:0;stroke:#9be2b9;stroke-width:2.965;stroke-linecap:butt;stroke-linejoin:round;stroke-miterlimit:10;stroke-dasharray:none;stroke-dashoffset:0;stroke-opacity:1"
       transform="matrix(1,0,0,-1,0,79.230383)"
       inkscape:original-d="m 93.5541,24.6792 11.9311,-8.9359 11.8588,8.9359 v 29.7086 l -11.8588,8.5738 -11.8104,-7.9703 z"
       inkscape:path-effect="#path-effect2"
       sodipodi:nodetypes="ccccccc" /><path
       stroke="#9be2b9"
       stroke-width="4"
       stroke-linejoin="round"
       stroke-linecap="butt"
       d="M 93.5209 39.5566 L 105.485 48.5298"
       fill-rule="nonzero"
       id="path5"
       style="fill:none;stroke:#9be2b9;stroke-dasharray:none;stroke-dashoffset:0;stroke-linecap:butt;stroke-linejoin:round;stroke-miterlimit:10;stroke-opacity:1;stroke-width:2.96500106868" /><path
       stroke="#9be2b9"
       stroke-width="4"
       stroke-linejoin="round"
       stroke-linecap="butt"
       d="M 117.45 39.5566 L 105.485 48.5298"
       fill-rule="nonzero"
       id="path7"
       style="fill:none;stroke:#9be2b9;stroke-dasharray:none;stroke-dashoffset:0;stroke-linecap:butt;stroke-linejoin:round;stroke-miterlimit:10;stroke-opacity:1;stroke-width:2.96500106868" /><path
       stroke="#9be2b9"
       stroke-width="4"
       stroke-linejoin="round"
       stroke-linecap="butt"
       d="M 93.5209 24.5993 L 105.485 33.5725"
       fill-rule="nonzero"
       id="path35"
       style="fill:none;stroke:#9be2b9;stroke-dasharray:none;stroke-dashoffset:0;stroke-linecap:butt;stroke-linejoin:round;stroke-miterlimit:10;stroke-opacity:1;stroke-width:2.96500106868" /><path
       stroke="#9be2b9"
       stroke-width="4"
       stroke-linejoin="round"
       stroke-linecap="butt"
       d="M 117.45 24.5993 L 105.485 33.5725"
       fill-rule="nonzero"
       id="path37"
       style="fill:none;stroke:#9be2b9;stroke-dasharray:none;stroke-dashoffset:0;stroke-linecap:butt;stroke-linejoin:round;stroke-miterlimit:10;stroke-opacity:1;stroke-width:2.96500106868" /><path
       stroke="#9be2b9"
       stroke-width="4"
       stroke-linejoin="round"
       stroke-linecap="butt"
       d="m 105.4852,33.5725 -2e-4,29.9107"
       fill-rule="nonzero"
       id="path39"
       style="fill:none;stroke:#9be2b9;stroke-width:2.965;stroke-linecap:butt;stroke-linejoin:round;stroke-miterlimit:10;stroke-dasharray:none;stroke-dashoffset:0;stroke-opacity:1"
       sodipodi:nodetypes="cc" /><path
       stroke="#9be2b9"
       stroke-width="4"
       stroke-linejoin="round"
       stroke-linecap="butt"
       d="M 105.505 77.2167 L 105.505 47.6232"
       fill-rule="nonzero"
       id="path39-1"
       style="fill:none;stroke:#9be2b9;stroke-dasharray:none;stroke-dashoffset:0;stroke-linecap:butt;stroke-linejoin:round;stroke-miterlimit:10;stroke-opacity:1;stroke-width:2.94923811924" /></g></svg>
